<mxfile host="app.diagrams.net" modified="2024-04-09T04:37:37.852Z" agent="Mozilla/5.0 (Macintosh; Intel Mac OS X 10_15_7) AppleWebKit/605.1.15 (KHTML, like Gecko) Version/17.4.1 Safari/605.1.15" etag="8LTf7bi2R77QScIUNIFc" version="24.2.3" type="github">
  <diagram name="Page-1" id="hMgqBxO052lftIxrU7MZ">
    <mxGraphModel dx="1306" dy="867" grid="1" gridSize="10" guides="1" tooltips="1" connect="1" arrows="1" fold="1" page="1" pageScale="1" pageWidth="827" pageHeight="1169" math="0" shadow="0">
      <root>
        <mxCell id="0" />
        <mxCell id="1" parent="0" />
        <mxCell id="cTYHRKmMfFHaoD_bCmjP-1" value="VPC" style="points=[[0,0],[0.25,0],[0.5,0],[0.75,0],[1,0],[1,0.25],[1,0.5],[1,0.75],[1,1],[0.75,1],[0.5,1],[0.25,1],[0,1],[0,0.75],[0,0.5],[0,0.25]];outlineConnect=0;gradientColor=none;html=1;whiteSpace=wrap;fontSize=12;fontStyle=0;container=1;pointerEvents=0;collapsible=0;recursiveResize=0;shape=mxgraph.aws4.group;grIcon=mxgraph.aws4.group_vpc2;strokeColor=#8C4FFF;fillColor=none;verticalAlign=top;align=left;spacingLeft=30;fontColor=#AAB7B8;dashed=0;" vertex="1" parent="1">
          <mxGeometry x="250" y="100" width="530" height="430" as="geometry" />
        </mxCell>
        <mxCell id="cTYHRKmMfFHaoD_bCmjP-2" value="Subnet" style="sketch=0;outlineConnect=0;gradientColor=none;html=1;whiteSpace=wrap;fontSize=12;fontStyle=0;shape=mxgraph.aws4.group;grIcon=mxgraph.aws4.group_subnet;strokeColor=#879196;fillColor=none;verticalAlign=top;align=left;spacingLeft=30;fontColor=#879196;dashed=0;" vertex="1" parent="cTYHRKmMfFHaoD_bCmjP-1">
          <mxGeometry x="260" y="30" width="200" height="160" as="geometry" />
        </mxCell>
        <mxCell id="cTYHRKmMfFHaoD_bCmjP-4" value="Subnet" style="sketch=0;outlineConnect=0;gradientColor=none;html=1;whiteSpace=wrap;fontSize=12;fontStyle=0;shape=mxgraph.aws4.group;grIcon=mxgraph.aws4.group_subnet;strokeColor=#879196;fillColor=none;verticalAlign=top;align=left;spacingLeft=30;fontColor=#879196;dashed=0;" vertex="1" parent="cTYHRKmMfFHaoD_bCmjP-1">
          <mxGeometry x="260" y="220" width="200" height="160" as="geometry" />
        </mxCell>
        <mxCell id="cTYHRKmMfFHaoD_bCmjP-6" value="" style="outlineConnect=0;dashed=0;verticalLabelPosition=bottom;verticalAlign=top;align=center;html=1;shape=mxgraph.aws3.ec2;fillColor=#F58534;gradientColor=none;" vertex="1" parent="cTYHRKmMfFHaoD_bCmjP-1">
          <mxGeometry x="340" y="80" width="48.25" height="50" as="geometry" />
        </mxCell>
        <mxCell id="cTYHRKmMfFHaoD_bCmjP-7" value="" style="outlineConnect=0;dashed=0;verticalLabelPosition=bottom;verticalAlign=top;align=center;html=1;shape=mxgraph.aws3.ec2;fillColor=#F58534;gradientColor=none;" vertex="1" parent="cTYHRKmMfFHaoD_bCmjP-1">
          <mxGeometry x="340" y="275" width="48.25" height="50" as="geometry" />
        </mxCell>
        <mxCell id="cTYHRKmMfFHaoD_bCmjP-19" value="" style="sketch=0;outlineConnect=0;fontColor=#232F3E;gradientColor=none;fillColor=#8C4FFF;strokeColor=none;dashed=0;verticalLabelPosition=bottom;verticalAlign=top;align=center;html=1;fontSize=12;fontStyle=0;aspect=fixed;pointerEvents=1;shape=mxgraph.aws4.application_load_balancer;" vertex="1" parent="cTYHRKmMfFHaoD_bCmjP-1">
          <mxGeometry x="70" y="176" width="78" height="78" as="geometry" />
        </mxCell>
        <mxCell id="cTYHRKmMfFHaoD_bCmjP-23" style="edgeStyle=orthogonalEdgeStyle;rounded=0;orthogonalLoop=1;jettySize=auto;html=1;entryX=0;entryY=0.5;entryDx=0;entryDy=0;entryPerimeter=0;" edge="1" parent="cTYHRKmMfFHaoD_bCmjP-1" source="cTYHRKmMfFHaoD_bCmjP-19" target="cTYHRKmMfFHaoD_bCmjP-6">
          <mxGeometry relative="1" as="geometry" />
        </mxCell>
        <mxCell id="cTYHRKmMfFHaoD_bCmjP-24" style="edgeStyle=orthogonalEdgeStyle;rounded=0;orthogonalLoop=1;jettySize=auto;html=1;entryX=0;entryY=0.5;entryDx=0;entryDy=0;entryPerimeter=0;" edge="1" parent="cTYHRKmMfFHaoD_bCmjP-1" source="cTYHRKmMfFHaoD_bCmjP-19" target="cTYHRKmMfFHaoD_bCmjP-7">
          <mxGeometry relative="1" as="geometry" />
        </mxCell>
        <mxCell id="cTYHRKmMfFHaoD_bCmjP-17" value="" style="sketch=0;points=[[0,0,0],[0.25,0,0],[0.5,0,0],[0.75,0,0],[1,0,0],[0,1,0],[0.25,1,0],[0.5,1,0],[0.75,1,0],[1,1,0],[0,0.25,0],[0,0.5,0],[0,0.75,0],[1,0.25,0],[1,0.5,0],[1,0.75,0]];outlineConnect=0;fontColor=#232F3E;fillColor=#8C4FFF;strokeColor=#ffffff;dashed=0;verticalLabelPosition=bottom;verticalAlign=top;align=center;html=1;fontSize=12;fontStyle=0;aspect=fixed;shape=mxgraph.aws4.resourceIcon;resIcon=mxgraph.aws4.cloudfront;" vertex="1" parent="1">
          <mxGeometry x="150" y="280" width="70" height="70" as="geometry" />
        </mxCell>
        <mxCell id="cTYHRKmMfFHaoD_bCmjP-18" style="edgeStyle=orthogonalEdgeStyle;rounded=0;orthogonalLoop=1;jettySize=auto;html=1;" edge="1" parent="1" source="cTYHRKmMfFHaoD_bCmjP-17" target="cTYHRKmMfFHaoD_bCmjP-19">
          <mxGeometry relative="1" as="geometry">
            <mxPoint x="280" y="315" as="targetPoint" />
          </mxGeometry>
        </mxCell>
        <mxCell id="cTYHRKmMfFHaoD_bCmjP-25" value="" style="shape=actor;whiteSpace=wrap;html=1;" vertex="1" parent="1">
          <mxGeometry x="40" y="285" width="40" height="60" as="geometry" />
        </mxCell>
        <mxCell id="cTYHRKmMfFHaoD_bCmjP-26" style="edgeStyle=orthogonalEdgeStyle;rounded=0;orthogonalLoop=1;jettySize=auto;html=1;entryX=0;entryY=0.5;entryDx=0;entryDy=0;entryPerimeter=0;" edge="1" parent="1" source="cTYHRKmMfFHaoD_bCmjP-25" target="cTYHRKmMfFHaoD_bCmjP-17">
          <mxGeometry relative="1" as="geometry" />
        </mxCell>
      </root>
    </mxGraphModel>
  </diagram>
</mxfile>
